# xmcd
#
# Track frame offsets: 
#        150
#        20467
#        36925
#        52317
#        69155
#        87449
#        103158
#        119837
#        137265
#        152203
#        173928
#        195650
#
# Disc length: 2808 seconds
#
# Revision: 4
# Processed by: cddbd v1.5.2PL0 Copyright (c) Steve Scherf et al.
# Submitted via: ExactAudioCopy v0.99pb5
#
DISCID=aa0af60c
DTITLE=John Lawton - Still Payin' My Dues...
DYEAR=2000
DGENRE=Rock
TTITLE0=She's So Fine
TTITLE1=Soldiers Of Fortune
TTITLE2=Can't Get You Out Of My Mind
TTITLE3=Tomorrow
TTITLE4=Starlight Angel
TTITLE5=Fools Game
TTITLE6=Payin' My Dues To The Blues
TTITLE7=I'll Be Your Man
TTITLE8=Big Fat Money
TTITLE9=Try A Little Tenderness
TTITLE10=Tonight
TTITLE11=Payin' My Dues To The Blues (Reprise)
EXTD=
EXTT0=
EXTT1=
EXTT2=
EXTT3=
EXTT4=
EXTT5=
EXTT6=
EXTT7=
EXTT8=
EXTT9=
EXTT10=
EXTT11=
PLAYORDER=
